<?xml version="1.0"?>
<svg xmlns="http://www.w3.org/2000/svg" xmlns:xlink="http://www.w3.org/1999/xlink" version="1.1" id="Capa_1" x="0px" y="0px" viewBox="0 0 364.4 364.4" style="enable-background:new 0 0 364.4 364.4;" xml:space="preserve" width="512" height="512"><g><g>
	<g>
		<circle cx="314.997" cy="146.8" r="19.6" data-original="#000000" class="active-path" style="fill:#6D9CFC" data-old_color="#000000"/>
	</g>
</g><g>
	<g>
		<path d="M314.997,97.6c-27.2,0-49.2,22-49.2,49.2c0,24.8,18.4,45.2,42,48.8v60c0,52.4-42.4,95.2-94.4,95.2s-94.4-42.8-94.4-95.2    v-44c56-4.8,100-51.6,100-108.8c0-26-9.2-50.8-26-70.4c2-3.2,3.2-6.8,3.2-10.8c0-12-9.6-21.6-21.6-21.6s-21.6,9.6-21.6,21.6    s9.6,21.6,21.6,21.6c2.8,0,5.6-0.4,8-1.6c14.4,17.2,22.4,38.4,22.4,61.2c0,52.4-42.8,95.2-95.2,95.2c-52.4,0-95.2-42.8-95.2-95.2    c0-23.2,8.4-45.2,23.2-62c3.2,1.6,6.4,2.4,10,2.4c12,0,21.6-9.6,21.6-21.6S59.797,0,47.797,0s-21.6,9.6-21.6,21.6    c0,3.2,0.8,6,2,8.8c-17.6,20-27.6,45.2-27.6,72.4c0,58.8,46.4,106.4,104.4,108.8v43.6c0,60.4,48.8,109.2,108.4,109.2    s108.4-48.8,108.4-109.2v-60c23.6-3.6,42-24,42-48.8C364.197,119.6,341.797,97.6,314.997,97.6z M314.997,181.6    c-19.2,0-34.8-15.6-34.8-34.8c0-19.2,15.6-34.8,34.8-34.8c19.2,0,34.8,15.6,34.8,34.8C349.797,166,334.197,181.6,314.997,181.6z" data-original="#000000" class="active-path" style="fill:#6D9CFC" data-old_color="#000000"/>
	</g>
</g></g> </svg>
