<?xml version="1.0"?>
<svg xmlns="http://www.w3.org/2000/svg" height="512" viewBox="0 -31 512 512" width="512" class=""><g><path d="m512 37.4375h-98.324219l-29.820312 29.640625h-36.25l-17.078125-17.078125h-149.054688l-17.078125 17.078125h-36.25l-29.820312-29.640625h-98.324219v94.613281l37.632812 37.632813c-.261718 1.871094-.398437 3.785156-.398437 5.726562 0 22.5625 18.355469 40.921875 40.921875 40.921875 22.5625 0 40.917969-18.359375 40.917969-40.921875s-18.355469-40.917968-40.917969-40.917968c-1.601562 0-3.179688.09375-4.734375.269531l-23.421875-23.421875v-23.902344h27.699219l29.820312 29.640625h56.566407l50.835937 58.375 15.246094 153.328125c-9.527344 7.734375-15.09375 19.285156-15.09375 31.734375 0 13.453125 6.585937 25.921875 17.457031 33.527344v55.585937h46.9375v-55.589844c10.863281-7.609374 17.445312-20.078124 17.445312-33.523437 0-12.445313-5.5625-23.996094-15.085937-31.730469l15.25-153.332031 50.835937-58.375h56.5625l29.820313-29.640625h27.703125v23.902344l-23.425781 23.425781c-1.550781-.179687-3.132813-.273437-4.734375-.273437-22.5625 0-40.921875 18.355468-40.921875 40.917968 0 22.566406 18.355469 40.921875 40.921875 40.921875 22.5625 0 40.917968-18.359375 40.917968-40.921875 0-1.941406-.136718-3.851562-.398437-5.71875l37.640625-37.640625zm-407.925781 137.972656c0 14.292969-11.628907 25.921875-25.921875 25.921875-14.289063 0-25.917969-11.628906-25.917969-25.921875 0-14.292968 11.628906-25.917968 25.917969-25.917968 14.292968 0 25.921875 11.625 25.921875 25.917968zm329.765625 25.921875c-14.292969 0-25.921875-11.628906-25.921875-25.921875 0-14.289062 11.628906-25.917968 25.921875-25.917968 14.292968 0 25.917968 11.625 25.917968 25.917968 0 14.292969-11.625 25.921875-25.917968 25.921875zm63.160156-75.492187-28.25 28.246094c-3.53125-5.761719-8.445312-10.582032-14.28125-14.003907l22.53125-22.527343v-45.117188h-48.886719l-29.824219 29.640625h-57.203124l-58.460938 67.132813-16.601562 166.960937 3.882812 2.480469c7.523438 4.796875 12.011719 12.96875 12.011719 21.863281 0 9.5-5.1875 18.226563-13.539063 22.777344l-3.910156 2.132812v49.203125h-16.9375v-49.203125l-3.914062-2.128906c-8.351563-4.550781-13.542969-13.28125-13.542969-22.78125 0-8.894531 4.492187-17.070313 12.015625-21.867187l3.886718-2.480469-16.601562-166.957031-58.460938-67.132813h-57.203124l-29.824219-29.640625h-48.886719v45.117188l22.527344 22.527343c-5.835938 3.417969-10.75 8.242188-14.285156 14l-28.242188-28.242187v-73.402344h77.136719l29.820312 29.640625h48.648438l17.082031-17.078125h136.625l17.082031 17.078125h48.648438l29.820312-29.640625h77.136719zm0 0" data-original="#000000" class="active-path" style="fill:#4794F8" data-old_color="#000000"/><path d="m154.214844 27.761719 12.761718-12.761719h178.046876l12.761718 12.761719.652344 27 14.996094-.363281-.796875-33-21.398438-21.398438h-190.476562l-21.398438 21.398438-.796875 33 14.996094.363281zm0 0" data-original="#000000" class="active-path" style="fill:#4794F8" data-old_color="#000000"/><path d="m180.074219 397.71875v-37.203125c0-14.789063 4.25-29.128906 12.292969-41.460937l1.441406-2.210938-12.464844-125.332031-22.527344-64.410157-14.160156 4.953126 21.9375 62.722656 11.773438 118.359375c-8.707032 14.25-13.292969 30.574219-13.292969 47.378906v43.414063l45.699219 45.699218h9.257812v-15h-3.042969zm0 0" data-original="#000000" class="active-path" style="fill:#4794F8" data-old_color="#000000"/><path d="m367.34375 132.054688-14.160156-4.953126-22.527344 64.410157-12.464844 125.339843 1.441406 2.210938c8.035157 12.332031 12.285157 26.667969 12.285157 41.453125v37.203125l-36.914063 36.914062h-3.035156v15h9.25l45.699219-45.699218v-43.417969c0-16.800781-4.585938-33.121094-13.285157-47.367187l11.769532-118.371094zm0 0" data-original="#000000" class="active-path" style="fill:#4794F8" data-old_color="#000000"/><path d="m433.839844 194.5625c-4.90625 0-9.8125-1.867188-13.550782-5.601562l10.605469-10.605469c1.625 1.621093 4.261719 1.621093 5.886719 0 1.621094-1.625 1.621094-4.261719 0-5.886719l10.605469-10.605469c7.472656 7.472657 7.472656 19.625 0 27.097657-3.734375 3.734374-8.640625 5.601562-13.546875 5.601562zm0 0" data-original="#000000" class="active-path" style="fill:#4794F8" data-old_color="#000000"/><path d="m77.980469 194.5625c-4.90625 0-9.8125-1.867188-13.550781-5.601562l10.605468-10.605469c1.625 1.621093 4.265625 1.621093 5.886719 0 1.621094-1.625 1.621094-4.261719 0-5.886719l10.605469-10.605469c7.472656 7.472657 7.472656 19.625 0 27.097657-3.730469 3.734374-8.640625 5.601562-13.546875 5.601562zm0 0" data-original="#000000" class="active-path" style="fill:#4794F8" data-old_color="#000000"/><path d="m267.058594 224.671875-14.925782-1.484375 6.402344-64.382812 11.355469-13.042969 11.3125 9.851562-8.214844 9.433594zm20.714844-76.597656-11.3125-9.851563 9.851562-11.3125 11.3125 9.851563zm16.417968-18.855469-11.3125-9.851562 9.851563-11.3125 11.3125 9.851562zm0 0" data-original="#000000" class="active-path" style="fill:#4794F8" data-old_color="#000000"/><path d="m317.0625 90h-41.0625v-15h41.0625zm-51.0625 0h-15v-15h15zm-25 0h-15v-15h15zm0 0" data-original="#000000" class="active-path" style="fill:#4794F8" data-old_color="#000000"/><path d="m307.539062 322.894531-14.925781-1.484375 8.914063-89.65625 14.925781 1.480469zm9.90625-99.609375-14.925781-1.484375 1.484375-14.925781 14.925782 1.484375zm2.472657-24.878906-14.925781-1.484375 1.484374-14.925781 14.925782 1.484375zm0 0" data-original="#000000" class="active-path" style="fill:#4794F8" data-old_color="#000000"/><path d="m337.773438 40h-113.546876v-15h113.550782v15zm-123.546876 0h-15v-15h15zm-25 0h-15v-15h15zm0 0" data-original="#000000" class="active-path" style="fill:#4794F8" data-old_color="#000000"/></g> </svg>
